<svg width="469px" height="163px" viewBox="0 0 469 163" version="1.1" xmlns="http://www.w3.org/2000/svg" xmlns:xlink="http://www.w3.org/1999/xlink">
           <defs>
            <polygon id="path-1" points="0.3133 0.8953 24.8973 0.8953 24.8973 40 0.3133 40" />
           </defs>
           <g id="Style" stroke="none" stroke-width="1" fill="none" fill-rule="evenodd">
            <g id="Logo/Primary-Monochrome">
             <g id="Group-2" transform="translate(0.000000, -0.000100)">
              <path d="M55.843,4.33431069e-13 L41.59,4.33431069e-13 L41.59,11.569 L17.848,11.569 L17.848,35.683 L6.39488462e-14,35.683 L6.39488462e-14,71.352 L18.074,71.352 L18.074,94.825 L41.59,94.825 L41.59,106.79 L54.143,106.79 C83.468,106.79 109.36,83.157 109.36,53.518 C109.36,24.184 85.195,4.33431069e-13 55.843,4.33431069e-13" id="Fill-1" fill="#E60028" />
              <g id="Group" transform="translate(132.772300, 5.628700)">
               <polygon id="Fill-4" fill="#111827" points="209.8149 4.6326 222.1609 4.6326 222.1609 91.0606 209.8149 91.0606 209.8149 95.5226 252.7559 95.5226 252.7559 91.0606 240.4049 91.0606 240.4049 4.6326 252.7559 4.6326 252.7559 0.0706 209.8149 0.0706" /><path d="M334.4535,0.0754 L258.0095,0.0754 L256.4555,25.2014 L260.9695,25.2014 C263.5725,6.9674 267.0135,2.6694 287.1215,3.6854 L287.1215,91.0644 L273.9745,91.0644 L273.9745,95.5274 L318.5675,95.5274 L318.5675,91.0644 L305.4125,91.0644 L305.4125,3.6854 C325.5615,2.6694 328.9705,6.9674 331.5495,25.2014 L335.9745,25.2014 L334.4535,0.0754 Z" id="Fill-6" fill="#111827" /><path d="M30.661,40.927 L30.661,4.538 L43.106,4.538 C55.767,4.538 60.465,7.762 60.465,23.704 C60.465,36.54 55.217,40.927 42.395,40.927 L30.661,40.927 Z M171.091,6.039 L171.091,90.919 L158.797,90.919 L158.797,95.367 L201.686,95.367 L201.686,90.919 L189.321,90.919 L189.321,4.538 L201.686,4.538 L201.686,0 L166.427,0 L145.744,65.252 L125.801,0 L90.735,0 L90.735,4.538 L103.025,4.538 L103.025,90.919 L89.733,90.919 C77.358,91.14 77.137,80.662 77.212,78.479 C77.358,55.24 72.218,46.796 49.916,43.351 L49.916,43.036 C63.209,41.633 80.168,37.872 80.168,21.756 C80.168,1.888 61.637,0 46.034,0 L-1.56319402e-13,0 L-1.56319402e-13,4.538 L12.365,4.538 L12.365,90.919 L-1.56319402e-13,90.919 L-1.56319402e-13,95.456 L42.951,95.456 L42.951,90.919 L30.661,90.919 L30.661,45.389 C38.55,45.069 47.479,47.017 51.47,50.557 C55.217,53.682 57.175,63.464 57.175,75.273 C57.175,89.827 64.772,95.367 79.208,95.367 L120.543,95.367 L120.543,90.919 L108.508,90.919 L108.508,6.039 L108.805,6.039 L137.211,95.367 L142.054,95.367 L170.607,6.039 L171.091,6.039 Z" id="Fill-8" fill="#111827" /><path d="M35.7348,121.7307 L35.7348,142.6197 C35.7348,148.3437 32.1388,151.6897 26.6978,151.6897 C21.2708,151.6897 17.6608,148.3437 17.6608,142.6197 L17.6608,121.7307 C17.6608,119.3067 16.6578,118.2857 14.2108,118.2857 L8.8438,118.2857 L8.8438,122.9207 L11.1418,122.9207 C11.8808,122.9207 12.3278,123.3027 12.3278,124.0847 L12.3278,142.8647 C12.3278,151.0827 18.1028,156.7827 26.7398,156.7827 C35.3958,156.7827 41.1338,151.0827 41.1338,142.8647 L41.1338,124.0847 C41.1338,123.3027 41.5438,122.9207 42.3198,122.9207 L44.5888,122.9207 L44.5888,118.2857 L39.2468,118.2857 C36.8458,118.2857 35.7348,119.3067 35.7348,121.7307" id="Fill-10" fill="#111827" /><path d="M76.5058,121.7307 L76.5058,142.2287 C76.5058,144.4317 76.8018,147.3967 76.8018,147.3967 L76.7268,147.3967 C76.7268,147.3967 74.9478,144.2617 73.5458,142.2287 L56.7888,118.2857 L51.8608,118.2857 L51.8608,150.2877 C51.8608,151.0827 51.4648,151.5437 50.6888,151.5437 L48.4158,151.5437 L48.4158,156.0817 L53.8048,156.0817 C56.2528,156.0817 57.2498,155.0597 57.2498,152.6357 L57.2498,132.1367 C57.2498,130.0997 56.9538,127.0587 56.9538,127.0587 L57.0288,127.0587 C57.0288,127.0587 58.7278,130.0997 60.1358,132.1367 L77.0238,156.0817 L81.8158,156.0817 L81.8158,124.0847 C81.8158,123.3027 82.2108,122.9207 82.9868,122.9207 L85.2608,122.9207 L85.2608,118.2857 L79.9428,118.2857 C77.4278,118.2857 76.5058,119.3057 76.5058,121.7307" id="Fill-12" fill="#111827" /><polygon id="Fill-14" fill="#111827" points="90.0243 122.9211 93.7333 122.9211 93.7333 151.5441 90.0243 151.5441 90.0243 156.0811 102.4743 156.0811 102.4743 151.5441 98.8123 151.5441 98.8123 122.9211 102.4743 122.9211 102.4743 118.2851 90.0243 118.2851" /><path d="M132.8285,121.4153 L124.5355,144.6573 C123.8345,146.7673 123.1325,149.8963 123.1325,149.8963 L122.9815,149.8963 C122.9815,149.8963 122.2805,146.7673 121.5795,144.6573 L113.2435,121.4153 C112.4155,118.9113 111.4695,118.2853 108.8055,118.2853 L105.7975,118.2853 L105.7975,122.9213 L106.5365,122.9213 C107.4865,122.9213 108.0235,123.1433 108.3625,124.0843 L120.2475,156.0813 L125.8765,156.0813 L137.7625,124.0843 C138.0675,123.1433 138.5755,122.9213 139.5555,122.9213 L140.3125,122.9213 L140.3125,118.2853 L137.2815,118.2853 C134.6315,118.2853 133.7615,118.9113 132.8285,121.4153" id="Fill-16" fill="#111827" /><path d="M165.6166,150.2873 C165.6166,151.0823 165.2216,151.5443 164.4356,151.5443 L153.4116,151.5443 C152.7106,151.5443 152.2396,151.0823 152.2396,150.2873 L152.2396,139.3443 L165.4706,139.3443 L165.4706,134.7303 L152.2396,134.7303 L152.2396,122.9213 L163.0286,122.9213 C163.7296,122.9213 164.2096,123.3033 164.2096,124.0843 L164.2096,126.5083 L169.0576,126.5083 L169.0576,121.7303 C169.0576,119.3073 168.0416,118.2853 165.6166,118.2853 L143.3956,118.2853 L143.3956,122.9213 L146.8796,122.9213 L146.8796,152.6363 C146.8796,155.0593 147.9326,156.0813 150.2816,156.0813 L167.0956,156.0813 C169.5376,156.0813 170.5356,155.0593 170.5356,152.6363 L170.5356,147.9523 L165.6166,147.9523 L165.6166,150.2873 Z" id="Fill-18" fill="#111827" /><path d="M190.018,136.4582 L183.056,136.4582 L183.056,122.9212 L190.135,122.9212 C194.131,122.9212 196.523,125.4162 196.523,129.5672 C196.523,133.7892 194.131,136.4582 190.018,136.4582 M201.404,150.2872 L196.829,141.2172 C196.203,139.9702 195.276,139.4892 195.276,139.4892 L195.276,139.4142 C197.93,138.7882 202.077,135.6582 202.077,129.3972 C202.077,122.4412 197.393,118.2852 190.729,118.2852 L174.254,118.2852 L174.254,122.9212 L177.747,122.9212 L177.747,156.0812 L183.056,156.0812 L183.056,141.0662 L187.985,141.0662 C190.093,141.0662 190.804,141.3022 191.741,143.1042 L196.904,153.2622 C198.17,155.6862 199.172,156.0812 202.152,156.0812 L204.792,156.0812 L204.792,151.5442 L204.086,151.5442 C202.769,151.5442 201.908,151.3932 201.404,150.2872" id="Fill-20" fill="#111827" />
               <g id="Group-24" transform="translate(207.227700, 116.787400)">
                <mask id="mask-2" fill="white">
                 <use xlink:href="#path-1"></use>
                </mask>
                <g id="Clip-23"></g><path d="M6.6633,10.8173 C6.6633,8.0033 9.2333,5.7433 13.3053,5.7433 C16.2663,5.7433 19.0853,7.1503 19.0853,9.1653 L19.0853,10.9773 L24.0643,10.9773 L24.0643,7.8523 C24.0643,2.6833 17.3013,0.8953 13.3053,0.8953 C6.1923,0.8953 1.1753,5.3293 1.1753,10.9773 C1.1753,22.7963 19.4613,21.5403 19.4613,29.4473 C19.4613,32.9633 16.5103,35.0773 12.9943,35.0773 C7.3643,35.0773 3.5283,30.5393 3.5283,30.5393 L0.3133,34.2993 C0.3133,34.2993 4.8603,40.0003 12.8623,40.0003 C20.3473,40.0003 24.8973,35.0023 24.8973,29.2023 C24.8973,16.7623 6.6633,18.4803 6.6633,10.8173" id="Fill-22" fill="#111827" mask="url(#mask-2)" />
               </g>
               <polygon id="Fill-25" fill="#111827" points="236.9555 122.9211 240.6445 122.9211 240.6445 151.5441 236.9555 151.5441 236.9555 156.0811 249.4425 156.0811 249.4425 151.5441 245.7245 151.5441 245.7245 122.9211 249.4425 122.9211 249.4425 118.2851 236.9555 118.2851" /><path d="M282.2026,118.2854 L256.1266,118.2854 C253.7216,118.2854 252.9206,119.0854 252.9206,121.5094 L252.9206,126.5084 L257.6796,126.5084 L257.6796,124.0844 C257.6796,123.3034 258.1216,122.9214 258.8606,122.9214 L266.4586,122.9214 L266.4586,156.0814 L271.8666,156.0814 L271.8666,122.9214 L279.4586,122.9214 C280.1596,122.9214 280.6016,123.3034 280.6016,124.0844 L280.6016,126.5084 L285.3796,126.5084 L285.3796,121.5094 C285.3796,119.0854 284.5696,118.2854 282.2026,118.2854" id="Fill-27" fill="#111827" /><path d="M311.3569,121.1936 L305.6379,130.7296 C304.4049,132.8436 303.3829,134.9526 303.3829,134.9526 L303.2329,134.9526 C303.2329,134.9526 302.1979,132.8436 300.9789,130.7296 L295.2309,121.1936 C293.7529,118.6896 292.7179,118.2856 290.1669,118.2856 L287.6629,118.2856 L287.6629,122.9216 L288.7539,122.9216 C289.8709,122.9216 290.3499,123.1426 291.0139,124.2536 L300.6439,139.5846 L300.6439,156.0866 L305.9769,156.0866 L305.9769,139.5846 L315.5129,124.2536 C316.2139,123.1426 316.7519,122.9216 317.8669,122.9216 L318.8699,122.9216 L318.8699,118.2856 L316.4599,118.2856 C313.9369,118.2856 312.8639,118.6896 311.3569,121.1936" id="Fill-29" fill="#111827" />
              </g>
             </g>
            </g>
           </g>
          </svg>